<?xml version="1.0" encoding="UTF-8"?>
<svg version="1.1" xmlns="http://www.w3.org/2000/svg" width="983" height="556">
<path d="M0 0 C324.39 0 648.78 0 983 0 C983 183.48 983 366.96 983 556 C658.61 556 334.22 556 0 556 C0 372.52 0 189.04 0 0 Z " fill="#FEFEFE" transform="translate(0,0)"/>
<path d="M0 0 C0.91742688 -0.00750224 1.83485376 -0.01500447 2.78008145 -0.02273405 C5.85537909 -0.04407234 8.93029482 -0.04395051 12.00566101 -0.04379272 C14.21014499 -0.05440581 16.4146234 -0.06623584 18.61909485 -0.07919312 C24.60883045 -0.10999004 30.59844659 -0.12111666 36.58825326 -0.12683535 C40.33035597 -0.13118796 44.07242765 -0.13956157 47.81451988 -0.14933395 C58.18164812 -0.17613716 68.54875513 -0.1987816 78.91592121 -0.20121193 C79.57894564 -0.2013675 80.24197007 -0.20152308 80.92508615 -0.20168336 C82.26910857 -0.20197441 83.61313099 -0.20225979 84.95715342 -0.20253952 C85.95787122 -0.2027538 85.95787122 -0.2027538 86.97880554 -0.20297241 C87.64676787 -0.20311208 88.31473021 -0.20325175 89.00293382 -0.20339565 C99.82558745 -0.20653073 110.6478408 -0.24312006 121.47036228 -0.29460867 C132.58989302 -0.34708736 143.70925793 -0.37270069 154.82891911 -0.37276304 C161.0690136 -0.37330137 167.30861078 -0.38491595 173.54859352 -0.42393875 C179.41834401 -0.4597759 185.28716669 -0.46209933 191.15697098 -0.43876648 C193.3096226 -0.43590417 195.46232864 -0.44497817 197.61487007 -0.46694565 C200.55781853 -0.49511387 203.49753003 -0.47994524 206.44042969 -0.45410156 C207.28917972 -0.47244509 208.13792976 -0.49078862 209.01239949 -0.50968802 C215.95315742 -0.37213398 219.17181495 2.60361491 223.91069031 7.40786743 C225.04119126 8.36254912 226.18240164 9.30491152 227.34037781 10.22607422 C289.91167722 60.79019211 289.91167722 60.79019211 293.06794357 89.36549759 C294.427386 105.9983846 292.33926429 122.62619326 289.79091072 139.04702473 C288.40200068 148.32438307 288.02274774 157.66964047 287.56430054 167.02993774 C284.94950132 218.8788912 271.21961787 267.7997613 237.91069031 308.40786743 C237.47885437 308.94121704 237.04701843 309.47456665 236.60209656 310.02407837 C224.84360874 324.48361013 211.6686957 338.00872529 196.91069031 349.40786743 C195.77409968 350.33060713 194.64015903 351.25661691 193.50834656 352.18521118 C138.12911961 397.48206787 138.12911961 397.48206787 114.13725281 396.90005493 C88.46797509 392.9844024 60.86389361 369.719313 41.49223328 353.71304321 C40.44720551 352.85062913 39.39680433 351.99468073 38.34086609 351.1456604 C21.2429066 337.39238043 4.69144208 321.27438548 -8.08930969 303.40786743 C-8.90196101 302.33309173 -9.71711308 301.26020278 -10.53462219 300.18911743 C-39.66748029 261.47285689 -50.53994879 215.94403927 -54.08930969 168.40786743 C-54.17582291 167.29999878 -54.26233612 166.19213013 -54.35147095 165.0506897 C-55.07411301 155.19113475 -55.3016248 145.37634432 -55.36274719 135.49380493 C-55.36807087 134.67532703 -55.37339455 133.85684914 -55.37887955 133.01356888 C-55.40530205 128.7024658 -55.42479393 124.39138894 -55.43940735 120.08023071 C-55.45285828 116.53049599 -55.48095585 112.98132097 -55.5214386 109.43179321 C-55.57068895 105.10911622 -55.5955127 100.78695383 -55.60263443 96.46400833 C-55.60933649 94.82692411 -55.62453145 93.18985102 -55.64852524 91.55292892 C-55.68011679 89.27267366 -55.68022739 86.994436 -55.67280579 84.71401978 C-55.68089264 83.42023407 -55.68897949 82.12644836 -55.6973114 80.79345703 C-54.9287765 76.51395629 -53.43954579 75.09018302 -50.08930969 72.40786743 C-46.81538391 70.92227173 -46.81538391 70.92227173 -43.14399719 69.73208618 C-42.16645981 69.40975761 -42.16645981 69.40975761 -41.16917419 69.08091736 C-39.80158197 68.63295894 -38.43163091 68.19214393 -37.05952454 67.75820923 C-34.95869777 67.09359204 -32.86562983 66.40806834 -30.77290344 65.71841431 C-20.59919886 62.40786743 -20.59919886 62.40786743 -17.08930969 62.40786743 C-17.09597153 61.74245438 -17.10263336 61.07704132 -17.10949707 60.39146423 C-17.17587648 53.46477084 -17.22112132 46.53816784 -17.25410461 39.61123657 C-17.26918931 37.0262383 -17.28965971 34.44126561 -17.31562805 31.85635376 C-17.35202411 28.14038783 -17.36903954 24.42476036 -17.38227844 20.70864868 C-17.3977623 19.55327103 -17.41324615 18.39789337 -17.42919922 17.20750427 C-17.42942581 16.12676132 -17.4296524 15.04601837 -17.42988586 13.93252563 C-17.4365477 12.98432449 -17.44320953 12.03612335 -17.45007324 11.05918884 C-16.88367697 6.89663261 -15.3274813 4.38980307 -12.04544067 1.78697109 C-7.96740925 -0.11552514 -4.44875785 -0.02061329 0 0 Z " fill="#FDFEFE" transform="translate(386.0893096923828,146.59213256835938)"/>
<path d="M0 0 C0.91742688 -0.00750224 1.83485376 -0.01500447 2.78008145 -0.02273405 C5.85537909 -0.04407234 8.93029482 -0.04395051 12.00566101 -0.04379272 C14.21014499 -0.05440581 16.4146234 -0.06623584 18.61909485 -0.07919312 C24.60883045 -0.10999004 30.59844659 -0.12111666 36.58825326 -0.12683535 C40.33035597 -0.13118796 44.07242765 -0.13956157 47.81451988 -0.14933395 C58.18164812 -0.17613716 68.54875513 -0.1987816 78.91592121 -0.20121193 C79.57894564 -0.2013675 80.24197007 -0.20152308 80.92508615 -0.20168336 C82.26910857 -0.20197441 83.61313099 -0.20225979 84.95715342 -0.20253952 C85.95787122 -0.2027538 85.95787122 -0.2027538 86.97880554 -0.20297241 C87.64676787 -0.20311208 88.31473021 -0.20325175 89.00293382 -0.20339565 C99.82558745 -0.20653073 110.6478408 -0.24312006 121.47036228 -0.29460867 C132.58989302 -0.34708736 143.70925793 -0.37270069 154.82891911 -0.37276304 C161.0690136 -0.37330137 167.30861078 -0.38491595 173.54859352 -0.42393875 C179.41834401 -0.4597759 185.28716669 -0.46209933 191.15697098 -0.43876648 C193.3096226 -0.43590417 195.46232864 -0.44497817 197.61487007 -0.46694565 C200.55781853 -0.49511387 203.49753003 -0.47994524 206.44042969 -0.45410156 C207.28917972 -0.47244509 208.13792976 -0.49078862 209.01239949 -0.50968802 C215.95315742 -0.37213398 219.17181495 2.60361491 223.91069031 7.40786743 C225.04119126 8.36254912 226.18240164 9.30491152 227.34037781 10.22607422 C289.91167722 60.79019211 289.91167722 60.79019211 293.06794357 89.36549759 C294.427386 105.9983846 292.33926429 122.62619326 289.79091072 139.04702473 C288.40200068 148.32438307 288.02274774 157.66964047 287.56430054 167.02993774 C284.94950132 218.8788912 271.21961787 267.7997613 237.91069031 308.40786743 C237.47885437 308.94121704 237.04701843 309.47456665 236.60209656 310.02407837 C224.84360874 324.48361013 211.6686957 338.00872529 196.91069031 349.40786743 C195.77409968 350.33060713 194.64015903 351.25661691 193.50834656 352.18521118 C138.12911961 397.48206787 138.12911961 397.48206787 114.13725281 396.90005493 C88.46797509 392.9844024 60.86389361 369.719313 41.49223328 353.71304321 C40.44720551 352.85062913 39.39680433 351.99468073 38.34086609 351.1456604 C21.2429066 337.39238043 4.69144208 321.27438548 -8.08930969 303.40786743 C-8.90196101 302.33309173 -9.71711308 301.26020278 -10.53462219 300.18911743 C-39.66748029 261.47285689 -50.53994879 215.94403927 -54.08930969 168.40786743 C-54.17582291 167.29999878 -54.26233612 166.19213013 -54.35147095 165.0506897 C-55.07411301 155.19113475 -55.3016248 145.37634432 -55.36274719 135.49380493 C-55.36807087 134.67532703 -55.37339455 133.85684914 -55.37887955 133.01356888 C-55.40530205 128.7024658 -55.42479393 124.39138894 -55.43940735 120.08023071 C-55.45285828 116.53049599 -55.48095585 112.98132097 -55.5214386 109.43179321 C-55.57068895 105.10911622 -55.5955127 100.78695383 -55.60263443 96.46400833 C-55.60933649 94.82692411 -55.62453145 93.18985102 -55.64852524 91.55292892 C-55.68011679 89.27267366 -55.68022739 86.994436 -55.67280579 84.71401978 C-55.68089264 83.42023407 -55.68897949 82.12644836 -55.6973114 80.79345703 C-54.9287765 76.51395629 -53.43954579 75.09018302 -50.08930969 72.40786743 C-46.81538391 70.92227173 -46.81538391 70.92227173 -43.14399719 69.73208618 C-42.16645981 69.40975761 -42.16645981 69.40975761 -41.16917419 69.08091736 C-39.80158197 68.63295894 -38.43163091 68.19214393 -37.05952454 67.75820923 C-34.95869777 67.09359204 -32.86562983 66.40806834 -30.77290344 65.71841431 C-20.59919886 62.40786743 -20.59919886 62.40786743 -17.08930969 62.40786743 C-17.09597153 61.74245438 -17.10263336 61.07704132 -17.10949707 60.39146423 C-17.17587648 53.46477084 -17.22112132 46.53816784 -17.25410461 39.61123657 C-17.26918931 37.0262383 -17.28965971 34.44126561 -17.31562805 31.85635376 C-17.35202411 28.14038783 -17.36903954 24.42476036 -17.38227844 20.70864868 C-17.3977623 19.55327103 -17.41324615 18.39789337 -17.42919922 17.20750427 C-17.42942581 16.12676132 -17.4296524 15.04601837 -17.42988586 13.93252563 C-17.4365477 12.98432449 -17.44320953 12.03612335 -17.45007324 11.05918884 C-16.88367697 6.89663261 -15.3274813 4.38980307 -12.04544067 1.78697109 C-7.96740925 -0.11552514 -4.44875785 -0.02061329 0 0 Z M8.91069031 27.40786743 C8.81934456 55.88426501 8.74860248 84.36064409 8.70642899 112.83715962 C8.70142645 116.20277015 8.69624914 119.56838039 8.69096375 122.93399048 C8.6899145 123.60399339 8.68886526 124.2739963 8.68778422 124.96430232 C8.67040197 135.79804799 8.63887638 146.63170834 8.60207912 157.46540347 C8.56460889 168.59041977 8.54274083 179.71540137 8.53433633 190.84047908 C8.52912761 197.08565584 8.5169093 203.3306394 8.48777008 209.57575417 C8.46054563 215.45836054 8.45225963 221.34069477 8.45825958 227.22335815 C8.4571625 229.377967 8.44925082 231.5325853 8.43386841 233.68713951 C8.15198428 249.01255143 8.15198428 249.01255143 12.91069031 263.40786743 C13.687995 264.95667603 13.687995 264.95667603 14.48100281 266.53677368 C18.24458525 272.42800952 22.44208061 277.23506285 27.49272156 282.06411743 C29.65666752 284.16164179 31.64022045 286.30740265 33.59819031 288.59536743 C38.47416504 294.26881467 43.75639056 299.32696007 49.42240906 304.20083618 C52.08618059 306.56352208 54.67592861 308.99351047 57.26567078 311.43667603 C63.94102765 317.73239175 70.71554277 323.70796149 77.91069031 329.40786743 C78.73569031 330.11298462 79.56069031 330.81810181 80.41069031 331.54458618 C81.58631531 332.5287854 81.58631531 332.5287854 82.78569031 333.53286743 C83.46373718 334.11294556 84.14178406 334.69302368 84.84037781 335.29067993 C86.86760276 336.627426 86.86760276 336.627426 89.27334118 336.21479225 C92.45424213 335.24156201 93.84119815 333.96811657 96.17858887 331.61425781 C96.99848801 330.79841217 97.81838715 329.98256653 98.66313171 329.14199829 C99.99187317 327.78932861 99.99187317 327.78932861 101.34745789 326.40933228 C102.29985235 325.4541713 103.25313802 324.49989823 104.20724487 323.54644775 C106.794851 320.95571789 109.37000191 318.35291565 111.94325852 315.7479434 C114.64396952 313.01845638 117.35645753 310.30072677 120.06784058 307.58184814 C125.20838362 302.42370314 130.33907729 297.25588124 135.46594495 292.0841471 C142.96978463 284.51531375 150.48606535 276.95885121 158.00500774 269.40502357 C158.55846506 268.84899684 159.11192238 268.29297011 159.68215114 267.72009408 C160.78676805 266.61037742 161.89141884 265.50069448 162.99610442 264.39104617 C166.2145284 261.15744681 169.42935312 257.92032365 172.64104998 254.68004298 C174.64918689 252.65476208 176.65937408 250.63152431 178.6699543 248.60866928 C180.03234038 247.23655002 181.39205723 245.86178202 182.75166321 244.48690796 C189.18845527 238.0158791 195.88892603 232.00908318 202.96763611 226.25346375 C212.38834026 218.58904491 221.48590397 210.58041956 230.41069031 202.34536743 C231.15971619 201.65487305 231.90874207 200.96437866 232.6804657 200.25296021 C251.11228047 183.09961256 265.36863803 167.79952794 266.36784363 141.71424866 C266.60997919 126.54714031 264.78645318 111.27738738 261.91069031 96.40786743 C261.14505264 96.40644241 260.37941498 96.4050174 259.59057617 96.40354919 C252.36616283 96.38570088 245.14246151 96.3440346 237.91836262 96.27577686 C234.2045418 96.24152211 230.49113165 96.2163994 226.77714539 96.21231079 C223.19114547 96.20802433 219.60607166 96.17953533 216.02036095 96.13443565 C214.65412483 96.12147133 213.28777781 96.11714928 211.92148781 96.12171364 C201.39222733 96.14869015 201.39222733 96.14869015 196.57450867 93.73965454 C193.80729769 88.19832979 194.20471751 82.47700032 194.23881531 76.39224243 C194.22823197 75.01170942 194.21531899 73.63119247 194.20018005 72.2507019 C194.16603272 68.62766414 194.16059611 65.00516529 194.16209412 61.38198853 C194.15886248 56.26195096 194.11624526 51.14206194 194.07835388 46.02218628 C194.0582984 43.29665062 194.04900426 40.57140109 194.04820251 37.84579468 C194.04439575 36.62072205 194.04058899 35.39564941 194.03666687 34.13345337 C194.03620361 33.04933167 194.03574036 31.96520996 194.03526306 30.84823608 C194.1866488 28.46044633 194.1866488 28.46044633 192.91069031 27.40786743 C190.5326123 27.31021908 188.18361903 27.27789611 185.80508423 27.28761292 C184.67674214 27.28633128 184.67674214 27.28633128 183.52560526 27.28502375 C180.98589316 27.28336669 178.44624601 27.28889398 175.90653992 27.29434204 C174.0936076 27.29462389 172.28067517 27.29446622 170.46774292 27.29389954 C165.52993317 27.29361147 160.5921475 27.29950962 155.65434337 27.30647349 C150.50001188 27.31270557 145.34567989 27.31331071 140.19134521 27.3144989 C130.42364939 27.31761265 120.65596469 27.32582662 110.88827378 27.33584839 C99.77117219 27.34700818 88.65407009 27.35251964 77.5369643 27.35754383 C54.66153345 27.3680092 31.7861125 27.38560948 8.91069031 27.40786743 Z " fill="#031C43" transform="translate(386.0893096923828,146.59213256835938)"/>
<path d="M0 0 C8.22340876 5.08607466 16.63986419 12.95979628 22 21 C22.63902351 26.64470771 21.41297653 29.6771251 18 34 C15.804387 36.45855396 13.48963509 38.78401109 11.15185547 41.10693359 C10.47173401 41.79055969 9.79161255 42.47418579 9.09088135 43.17852783 C6.85463522 45.42353552 4.6112024 47.66119716 2.3671875 49.8984375 C0.80798567 51.45898695 -0.7509192 53.01983317 -2.30953979 54.58096313 C-5.569492 57.84385851 -8.83302135 61.10312184 -12.09912109 64.35986328 C-16.29380484 68.54311515 -20.47939604 72.73533195 -24.66238594 76.93027306 C-27.87570198 80.15079716 -31.09374272 83.36656602 -34.31325912 86.58089066 C-35.85936352 88.12565759 -37.40397454 89.67192063 -38.94708633 91.21967697 C-41.09681725 93.37445985 -43.25280711 95.52277302 -45.41064453 97.66943359 C-46.0517215 98.31455902 -46.69279846 98.95968445 -47.353302 99.62435913 C-51.77146611 104 -51.77146611 104 -54 104 C-54.26303925 104.60069305 -54.52607849 105.20138611 -54.79708862 105.82028198 C-56.07334746 108.13290819 -57.20303609 109.23015434 -59.24658203 110.87548828 C-65.19027049 115.91310327 -70.59433121 121.48360829 -76.08166122 127.00649643 C-78.0883321 129.02604806 -80.09821322 131.04235613 -82.10891724 133.05789185 C-86.36711154 137.32744299 -90.62132917 141.60094282 -94.875 145.875 C-99.82706963 150.85067538 -104.78075828 155.82471659 -109.73865128 160.79459 C-111.72054819 162.78297733 -113.69941666 164.77434562 -115.67819214 166.76583862 C-116.88541209 167.97668872 -118.09277133 169.18739998 -119.30029297 170.39794922 C-119.85092911 170.95375168 -120.40156525 171.50955414 -120.96888733 172.0821991 C-125.74320322 176.85718218 -125.74320322 176.85718218 -129.75 177.3125 C-136.15296211 176.69683057 -140.45560137 171.836163 -144.8059082 167.43701172 C-145.35137802 166.89344025 -145.89684784 166.34986877 -146.45884705 165.78982544 C-148.24440243 164.00794812 -150.02270078 162.21902135 -151.80078125 160.4296875 C-153.04497877 159.18429684 -154.28954731 157.93927676 -155.5344696 156.6946106 C-158.13392151 154.0935992 -160.72999248 151.48927623 -163.32348633 148.88232422 C-166.65190447 145.53685506 -169.98692967 142.19806861 -173.32426167 138.86149406 C-175.89039649 136.29508781 -178.45392083 133.72608768 -181.01656151 131.15619278 C-182.24599297 129.9235754 -183.47603434 128.69156605 -184.70668983 127.46017075 C-186.42068356 125.74401616 -188.13134853 124.0246142 -189.84106445 122.30419922 C-190.35168427 121.79403259 -190.86230408 121.28386597 -191.38839722 120.75823975 C-194.14299796 117.97831367 -195.7594447 116.26291533 -196.5 112.375 C-195.7259974 107.15048245 -192.638584 104.66811796 -189 101 C-187.9267077 99.88968591 -186.85382092 98.77897972 -185.78125 97.66796875 C-184.62651625 96.48549659 -183.47025682 95.30451245 -182.3125 94.125 C-181.47489136 93.26733032 -181.47489136 93.26733032 -180.62036133 92.39233398 C-177.07838112 88.84505538 -174.32297727 86.48620455 -169.3125 85.4375 C-159.05261258 87.17974503 -149.99902551 99.77708141 -142.9375 106.9375 C-141.67820502 108.20684729 -140.41844287 109.4757313 -139.15820312 110.74414062 C-136.10005874 113.82411441 -133.04829727 116.91028132 -130 120 C-123.61240313 114.73667758 -117.81389874 108.93476334 -111.98754883 103.06933594 C-110.88980457 101.96803 -109.79182129 100.86696226 -108.69361877 99.76611328 C-106.341087 97.40706247 -103.99007439 95.04651191 -101.64020729 92.68480682 C-97.92420329 88.95043097 -94.20378556 85.22047339 -90.48258972 81.49127197 C-79.90592523 70.89051202 -69.33524045 60.28380094 -58.76879883 49.67285156 C-52.92399604 43.80350741 -47.07561001 37.93775744 -41.22335261 32.07584596 C-37.52309143 28.36904358 -33.8273817 24.65778047 -30.13497698 20.9431529 C-27.84027402 18.63672825 -25.54140884 16.33448791 -23.24133873 14.03341675 C-22.1753453 12.96527451 -21.11107572 11.8954087 -20.04866028 10.82370758 C-18.59897572 9.36184355 -17.14325434 7.90626676 -15.68586731 6.4520874 C-14.8727197 5.63579739 -14.05957209 4.81950737 -13.22178364 3.97848129 C-9.00038743 0.21936034 -5.66893844 -0.91434491 0 0 Z " fill="#3FB772" transform="translate(616,279)"/>
<path d="M0 0 C0.8859787 -0.0071553 1.7719574 -0.01431061 2.68478394 -0.02168274 C4.14662613 -0.02571609 4.14662613 -0.02571609 5.63800049 -0.02983093 C6.66253326 -0.03640213 7.68706604 -0.04297333 8.74264526 -0.04974365 C12.14428779 -0.06950716 15.54588611 -0.08114625 18.9475708 -0.09111023 C20.10769936 -0.09518576 21.26782791 -0.09926128 22.46311188 -0.10346031 C28.60376305 -0.12433438 34.74439179 -0.13863015 40.8850708 -0.147995 C47.23169884 -0.15906033 53.57797634 -0.19345825 59.92448044 -0.23316669 C64.80066586 -0.25929868 69.67676737 -0.26768383 74.55301666 -0.27127647 C76.89259457 -0.27615149 79.2321685 -0.28779136 81.57167816 -0.30631447 C84.846673 -0.33063171 88.12075572 -0.32975401 91.39581299 -0.32279968 C92.8455098 -0.34201477 92.8455098 -0.34201477 94.32449341 -0.36161804 C100.12131304 -0.31675686 103.33556766 0.33243144 107.7756958 4.14717102 C109.76347142 6.99895138 110.06134569 9.15092128 109.7756958 12.58467102 C109.7344458 13.32588196 109.6931958 14.0670929 109.6506958 14.83076477 C108.31586003 18.36450412 106.01155857 20.36597699 102.7756958 22.14717102 C99.26699591 22.86651995 95.83174291 22.82087073 92.25982666 22.77827454 C90.69048119 22.78900749 90.69048119 22.78900749 89.08943176 22.79995728 C85.63935369 22.81683333 82.19057683 22.79744802 78.74053955 22.77607727 C76.33970533 22.776906 73.93887116 22.77936552 71.53804016 22.78338623 C66.51023245 22.78624342 61.48287041 22.77154872 56.45513916 22.74409485 C50.00978484 22.7099946 43.56522649 22.71603755 37.11983395 22.73475742 C32.16385765 22.74532374 27.20806668 22.73639309 22.25210762 22.7213726 C19.87544874 22.71618892 17.49877052 22.71667484 15.12211418 22.72291756 C11.80170911 22.72836578 8.48244544 22.70800619 5.16217041 22.68061829 C3.68845474 22.6904071 3.68845474 22.6904071 2.18496704 22.70039368 C-2.14300295 22.63967123 -4.563524 22.55570185 -8.31095886 20.23883057 C-11.69468874 16.539754 -11.6117966 13.49585568 -11.5836792 8.63154602 C-11.2243042 6.14717102 -11.2243042 6.14717102 -8.8493042 3.08467102 C-5.55206443 0.65099405 -4.00972146 0.02219494 0 0 Z " fill="#031A40" transform="translate(436.22430419921875,262.8528289794922)"/>
<path d="M0 0 C0.89439285 -0.00860046 1.78878571 -0.01720093 2.71028137 -0.02606201 C3.69419357 -0.03032196 4.67810577 -0.03458191 5.6918335 -0.03897095 C7.24326302 -0.05123718 7.24326302 -0.05123718 8.82603455 -0.06375122 C12.26013606 -0.08863083 15.69419617 -0.10512797 19.12835693 -0.11953735 C20.29951805 -0.12486103 21.47067917 -0.13018471 22.67733002 -0.13566971 C28.87633104 -0.16241261 35.07531184 -0.18178378 41.27435303 -0.19619751 C47.68159329 -0.21284681 54.08831935 -0.25762442 60.49536514 -0.30856895 C65.41787312 -0.34220489 70.34025853 -0.35377102 75.26287079 -0.35942459 C77.62479328 -0.36614726 79.98670743 -0.38139548 82.34851837 -0.4053154 C85.65479062 -0.43688954 88.95966917 -0.4370147 92.26605225 -0.42959595 C93.24186752 -0.44600128 94.2176828 -0.46240662 95.22306824 -0.47930908 C99.682707 -0.43834788 102.77467188 -0.30327613 106.33532715 2.54779053 C109.40111784 5.87353591 109.71041221 7.65125298 109.90570068 12.00546265 C109.66094756 15.1360259 108.80838845 16.8071561 106.73773193 19.15390015 C102.02556394 22.97829364 97.32111106 22.59141661 91.53485107 22.57382202 C89.99739479 22.58652634 89.99739479 22.58652634 88.42887878 22.5994873 C85.04342209 22.62287107 81.6584195 22.62387913 78.27288818 22.62265015 C75.91786009 22.62975064 73.56283372 22.63744947 71.20780945 22.64572144 C66.27250356 22.65916927 61.33735766 22.66073347 56.40203857 22.65487671 C50.07889069 22.6489791 43.75651021 22.67957431 37.43351078 22.71999359 C32.57016365 22.74584717 27.70700189 22.74875011 22.8435955 22.74510193 C20.51239531 22.74679522 18.18118673 22.75645769 15.85005379 22.77424622 C12.58951615 22.7963896 9.33053977 22.78675634 6.07000732 22.76913452 C4.62738022 22.78902939 4.62738022 22.78902939 3.15560913 22.80932617 C-1.28204289 22.7536206 -4.31487605 22.58854582 -7.84553528 19.740448 C-11.41367642 15.9215865 -11.65434574 13.492709 -11.62164307 8.4156189 C-11.0516994 4.82869085 -9.06000758 3.28551121 -6.26226807 1.15390015 C-3.94150693 -0.00648042 -2.58452904 0.01847759 0 0 Z " fill="#021A40" transform="translate(436.26226806640625,210.84609985351563)"/>
<path d="M0 0 C0.69451767 -0.0049649 1.38903534 -0.00992981 2.104599 -0.01504517 C4.4072264 -0.0296756 6.70978488 -0.03647077 9.01245117 -0.04199219 C10.61187238 -0.04774361 12.21129356 -0.05350134 13.81071472 -0.05926514 C17.16743288 -0.06977811 20.52412707 -0.0756186 23.88085938 -0.07910156 C28.17837341 -0.08458218 32.47556995 -0.10859949 36.7729845 -0.13707352 C40.07843443 -0.15571589 43.3838082 -0.16090638 46.68930626 -0.16243744 C48.27331971 -0.16546169 49.85733188 -0.17348257 51.44129372 -0.18662262 C53.66032519 -0.2037145 55.87858531 -0.20179546 58.09765625 -0.1953125 C59.35959305 -0.19895813 60.62152985 -0.20260376 61.92170715 -0.20635986 C65.50808414 0.19047327 67.37621603 1.01540483 70.24291992 3.16113281 C72.92285161 7.14437475 73.0783507 11.52076978 72.24291992 16.16113281 C70.06132847 18.91682728 68.37114499 20.59702028 65.24291992 22.16113281 C62.9924853 22.26862504 60.73880708 22.31005232 58.48583984 22.32226562 C57.44406334 22.32971298 57.44406334 22.32971298 56.38124084 22.33731079 C54.07861344 22.35194123 51.77605496 22.35873639 49.47338867 22.36425781 C47.87396747 22.37000923 46.27454628 22.37576697 44.67512512 22.38153076 C41.31840697 22.39204373 37.96171278 22.39788423 34.60498047 22.40136719 C30.30746643 22.4068478 26.01026989 22.43086511 21.71285534 22.45933914 C18.40740541 22.47798151 15.10203164 22.483172 11.79653358 22.48470306 C10.21252014 22.48772731 8.62850796 22.4957482 7.04454613 22.50888824 C4.82551465 22.52598012 2.60725454 22.52406108 0.38818359 22.51757812 C-1.5047216 22.52304657 -1.5047216 22.52304657 -3.43586731 22.52862549 C-7.04833368 22.12890556 -8.88878148 21.35370916 -11.75708008 19.16113281 C-14.57433241 14.93525432 -14.55666391 11.12488593 -13.75708008 6.16113281 C-9.49875115 0.67012972 -6.70490977 0.03634722 0 0 Z " fill="#031A40" transform="translate(438.757080078125,313.8388671875)"/>
<path d="M0 0 C5.98527736 4.92757056 11.46310225 10.30948225 16.92749023 15.79711914 C18.45507121 17.33013372 19.98802081 18.85763767 21.52148438 20.38476562 C22.49250893 21.35644973 23.46322392 22.32844331 24.43359375 23.30078125 C25.31072021 24.17903564 26.18784668 25.05729004 27.09155273 25.9621582 C29 28 29 28 29 29 C25.03069011 29.02465881 21.06140966 29.04284023 17.09204102 29.05493164 C15.74079614 29.05997057 14.38955674 29.06680177 13.03833008 29.07543945 C11.09979566 29.08752419 9.161222 29.09269828 7.22265625 29.09765625 C5.47094116 29.10551147 5.47094116 29.10551147 3.68383789 29.11352539 C1 29 1 29 0 28 C-0.08767112 25.92737924 -0.10695873 23.85179706 -0.09765625 21.77734375 C-0.09443359 20.51728516 -0.09121094 19.25722656 -0.08789062 17.95898438 C-0.07953403 16.61848891 -0.07106907 15.27799412 -0.0625 13.9375 C-0.0574866 12.59310058 -0.05292342 11.2486994 -0.04882812 9.90429688 C-0.03699488 6.60282059 -0.02050971 3.30143197 0 0 Z " fill="#F9FAFA" transform="translate(606,187)"/>
<path d="M0 0 C0 4.71925919 -2.25806385 7.22013741 -5.4453125 10.5703125 C-6.32960938 11.41335938 -7.21390625 12.25640625 -8.125 13.125 C-11.85700356 16.55067382 -11.85700356 16.55067382 -14 21 C-15.3153341 21.70151152 -16.65117592 22.36525925 -18 23 C-18.474375 23.474375 -18.94875 23.94875 -19.4375 24.4375 C-21 26 -21 26 -23.3125 27.3125 C-26.75508061 29.47412038 -29.19342046 32.06288187 -32 35 C-32.66 34.67 -33.32 34.34 -34 34 C-22.78 22.78 -11.56 11.56 0 0 Z " fill="#26AE5F" transform="translate(540,346)"/>
<path d="M0 0 C0 3 0 3 -2.1171875 5.41015625 C-3.48230469 6.72306641 -3.48230469 6.72306641 -4.875 8.0625 C-5.77992188 8.94035156 -6.68484375 9.81820313 -7.6171875 10.72265625 C-8.79667969 11.84994141 -8.79667969 11.84994141 -10 13 C-10.66 13.66 -11.32 14.32 -12 15 C-12.796875 13.32421875 -12.796875 13.32421875 -13 11 C-11.015625 8.45703125 -11.015625 8.45703125 -8.25 5.8125 C-7.34765625 4.93207031 -6.4453125 4.05164063 -5.515625 3.14453125 C-3 1 -3 1 0 0 Z " fill="#32B167" transform="translate(434,375)"/>
<path d="M0 0 C0.99 0 1.98 0 3 0 C3 11.55 3 23.1 3 35 C2.67 35 2.34 35 2 35 C1.97494385 34.12674072 1.9498877 33.25348145 1.92407227 32.35375977 C1.82912291 29.12397448 1.72987971 25.89435846 1.62768555 22.66479492 C1.58428566 21.26510801 1.54261436 19.86536641 1.50268555 18.46557617 C1.44510555 16.45738505 1.38086 14.44938851 1.31640625 12.44140625 C1.27974854 11.23170166 1.24309082 10.02199707 1.20532227 8.77563477 C1.31061734 6.09294544 1.31061734 6.09294544 0 5 C-0.04063832 3.33382885 -0.042721 1.66611905 0 0 Z " fill="#0A224A" transform="translate(369,155)"/>
<path d="M0 0 C7.57142857 1.85714286 7.57142857 1.85714286 10 5 C5.2482602 4.56802365 3.07999946 3.67230705 0 0 Z " fill="#0A1631" transform="translate(461,523)"/>
</svg>
